<?xml version="1.0" encoding="UTF-8" standalone="no"?>
<!-- Created with Inkscape (http://www.inkscape.org/) -->

<svg
   version="1.1"
   id="svg48"
   width="627.30157"
   height="563.80951"
   viewBox="0 0 627.30157 563.80951"
   sodipodi:docname="iconwhite.png"
   inkscape:version="1.2.2 (b0a8486541, 2022-12-01)"
   inkscape:export-filename="../Capturas de tela/icon.svg"
   inkscape:export-xdpi="96"
   inkscape:export-ydpi="96"
   inkscape:dataloss="true"
   xmlns:inkscape="http://www.inkscape.org/namespaces/inkscape"
   xmlns:sodipodi="http://sodipodi.sourceforge.net/DTD/sodipodi-0.dtd"
   xmlns="http://www.w3.org/2000/svg"
   xmlns:svg="http://www.w3.org/2000/svg">
  <defs
     id="defs52" />
  <sodipodi:namedview
     id="namedview50"
     pagecolor="#505050"
     bordercolor="#eeeeee"
     borderopacity="1"
     inkscape:showpageshadow="0"
     inkscape:pageopacity="0"
     inkscape:pagecheckerboard="0"
     inkscape:deskcolor="#505050"
     showgrid="false"
     inkscape:zoom="0.95692333"
     inkscape:cx="112.3392"
     inkscape:cy="199.07551"
     inkscape:window-width="1920"
     inkscape:window-height="1043"
     inkscape:window-x="0"
     inkscape:window-y="0"
     inkscape:window-maximized="1"
     inkscape:current-layer="g54" />
  <g
     inkscape:groupmode="layer"
     inkscape:label="Image"
     id="g54">
    <path
       style="fill:#ffffff"
       d="m 312.15349,523.20791 c -6.34022,-23.09837 -8.93753,-40.90266 -14.49915,-99.3904 -3.64145,-38.29483 -6.6015,-57.58583 -10.2605,-66.86872 C 257.06975,280.01591 130.20388,209.9302 59.882973,231.26278 c -15.97163,4.84517 -16.96373,4.78691 -13.96305,-0.8199 10.25723,-19.16581 39.414586,-35.60051 102.325987,-57.67656 81.39912,-28.56354 106.48939,-52.07941 117.75395,-110.36493 4.39099,-22.720002 8.21151,-29.6487 14.92744,-27.071554 7.82926,3.004365 8.18459,27.071554 0.39967,27.071554 -3.86356,0 -12.07418,36.412942 -6.35382,43.12011 l 0.46504,0.54526 6.96236,-1.39248 c 3.82933,-0.76586 9.95286,-2.14303 13.6079,-3.06038 l 6.64548,-1.667918 0.003,63.132468 c 0.005,103.63344 5.2114,260.01624 5.15148,261.99746 -0.32407,10.71414 0.15098,-0.26349 0.22343,-0.76977 3.89359,-27.21003 7.34898,-133.99011 7.33491,-226.66666 -0.008,-53.42857 0.2785,-97.14285 0.63692,-97.14285 0.35843,0 4.08325,0.98416 8.27741,2.18702 4.19414,1.20286 10.297,1.40169 13.99956,1.57483 l 6.86684,0.0405 c -0.0203,-1.18745 0.74488,-1.87291 0.74029,-3.81199 -0.0341,-14.378728 -7.01511,-37.699886 -9.34277,-38.08568 -5.8171,0 -9.04874,-12.118722 -5.31117,-19.916911 5.08409,-10.607593 12.85189,-8.905414 15.55668,3.408975 17.43944,79.398226 35.91481,97.982556 128.75143,129.510706 48.75553,16.55781 66.67341,25.69645 83.63145,42.65451 14.74047,14.74047 14.56909,16.39947 -1.23695,11.97406 -63.60669,-17.80877 -185.13189,43.4278 -220.39449,111.05683 -20.13344,38.61323 -31.18619,127.3524 -22.03081,176.87842 3.73963,20.22954 1.65181,23.48828 -3.35715,5.23993 z"
       id="path216"
       sodipodi:nodetypes="cscssssssscsscssscssccscssssssscc" />
    <path
       style="fill:#ffffff;stroke-width:1.47788"
       d="m 312.68255,521.77348 c -4.8931,-18.13409 -7.14649,-31.40222 -10.41693,-61.33578 -1.64771,-15.0811 -4.35728,-39.88975 -6.02128,-55.13034 -1.664,-15.24059 -4.06544,-32.36547 -5.33652,-38.05529 -12.35659,-55.31224 -92.21477,-119.60174 -169.80578,-136.70145 -20.71335,-4.56486 -44.441559,-4.6021 -60.814377,-0.0955 -6.670529,1.83608 -12.860976,3.09406 -13.756549,2.79555 -2.640469,-0.88017 6.630012,-12.38519 15.894329,-19.72549 11.600483,-9.19127 41.538177,-23.57782 73.539107,-35.33916 52.32554,-19.23129 69.58792,-27.2584 88.31735,-41.06812 22.34291,-16.47403 33.812,-36.16236 41.79175,-71.741506 5.69994,-25.414233 8.64195,-31.297376 14.52252,-29.04079 3.0856,1.184054 5.37274,7.428842 5.37274,14.669656 0,5.215286 -0.86457,7.41439 -4.29435,10.923007 -3.07295,3.143577 -4.96448,7.339371 -6.65044,14.751982 -3.06171,13.461336 -3.1542,28.035391 -0.18512,29.174721 1.19404,0.4582 7.84448,-0.47005 14.77876,-2.06276 l 12.60778,-2.89585 0.0418,68.15132 c 0.0572,93.26126 4.11479,265.57069 6.04208,256.58044 3.77272,-17.59857 7.20159,-118.70814 7.21702,-212.81408 0.006,-40.23516 0.447,-81.68421 0.97865,-92.109 0.93506,-18.33463 1.0677,-18.92425 4.05817,-18.03913 1.70032,0.50327 8.3506,1.3206 14.77838,1.8163 l 11.68687,0.90126 -0.95558,-10.202827 c -1.52049,-16.233776 -5.91183,-29.993696 -10.82167,-33.908664 -3.61401,-2.88171 -4.20717,-4.394384 -4.20717,-10.728993 0,-7.994544 3.42179,-13.596128 8.30536,-13.596128 3.69506,0 4.65087,2.276969 10.8133,25.759777 13.58449,51.765555 28.78435,71.413635 70.92907,91.686325 10.62328,5.11006 27.29558,12.13507 37.04956,15.61113 55.90536,19.92316 70.64158,26.14868 84.97784,35.9001 8.5047,5.78484 25.12389,21.61282 25.12389,23.92783 0,1.29494 -3.673,0.99393 -13.67035,-1.12032 -47.28583,-10.00002 -120.95751,16.21302 -176.23666,62.70655 -36.66884,30.841 -51.60545,59.90043 -61.23444,119.13266 -6.43164,39.56394 -7.16774,75.97891 -2.18359,108.02386 1.1874,7.63417 1.89094,14.14826 1.56344,14.47576 -0.32749,0.3275 -2.03704,-4.74719 -3.79899,-11.27708 z"
       id="path622" />
  </g>
</svg>
