<?xml version="1.0" encoding="UTF-8" standalone="no"?>
<!-- Created with Inkscape (http://www.inkscape.org/) -->

<svg
   width="172.43845mm"
   height="82.28846mm"
   viewBox="0 0 172.43845 82.28846"
   version="1.1"
   id="svg5"
   xml:space="preserve"
   sodipodi:docname="desenho.svg"
   xmlns:inkscape="http://www.inkscape.org/namespaces/inkscape"
   xmlns:sodipodi="http://sodipodi.sourceforge.net/DTD/sodipodi-0.dtd"
   xmlns="http://www.w3.org/2000/svg"
   xmlns:svg="http://www.w3.org/2000/svg"><sodipodi:namedview
     id="namedview6"
     pagecolor="#505050"
     bordercolor="#eeeeee"
     borderopacity="1"
     inkscape:showpageshadow="0"
     inkscape:pageopacity="0"
     inkscape:pagecheckerboard="0"
     inkscape:deskcolor="#505050"
     inkscape:document-units="mm"
     showgrid="false" /><defs
     id="defs2" /><g
     id="layer1"
     transform="translate(-23.865347,-106.29488)"><path
       style="fill:#ffffff;stroke-width:0.404778"
       d="m 71.644575,186.87255 c -5.627648,-2.57459 -8.078898,-8.45536 -8.158831,-16.67705 -0.68023,-9.15553 -0.101899,-18.37391 -0.268416,-27.55348 0.319862,-7.8545 -0.579222,-15.87187 0.900524,-23.60607 0.631703,-2.59835 1.449828,-5.19476 3.489581,-7.07067 3.058103,-4.38029 9.084418,-5.88449 14.190762,-5.64634 7.801609,0.28916 14.471663,6.65183 15.230013,14.42759 1.21361,5.65368 -6.733899,0.74669 -9.700083,0.14976 -6.40647,-1.62067 -5.957636,-1.23074 -10.384638,-0.63898 -2.866161,0.40706 -12.661443,2.8786 -9.520523,3.41783 7.159409,4.7211 13.613577,9.03708 15.259722,17.36307 0.829403,4.72634 -0.4716,9.85292 1.559985,17.50119 0.597745,5.09615 -3.451716,9.11396 -5.620924,13.37332 -1.785426,2.86045 -4.471102,6.79345 -6.267101,9.64727 -2.284998,3.81536 0.520882,-0.46773 4.807693,-4.73017 2.933912,-3.6688 5.412691,-7.94107 8.870276,-11.08992 2.050152,-1.42628 6.629583,-3.14692 9.361173,-2.88061 3.95006,0.29267 3.19583,-0.98155 3.12604,-0.23153 -0.0768,0.82551 -0.0169,2.01069 -0.4324,4.43381 -0.26135,1.92125 -0.86959,14.36733 -5.92174,18.33038 -5.396054,4.23282 -15.606356,3.72904 -20.521113,1.4806 z m -47.249777,1.55879 -0.529451,-81.40439 c 7.508228,0.0883 15.073893,-0.15681 22.546417,0.13864 5.721855,1.37942 11.432629,4.11507 11.934527,10.09448 0.742964,10.75935 0.300552,19.21258 0.260379,29.10183 -0.163925,8.9021 0.186355,17.70628 -0.24692,26.57709 -0.0037,0.16602 -0.09423,11.26825 -6.449086,14.71006 -1.194699,0.67369 -13.402687,1.16904 -27.515866,0.78229 z m 17.06065,-14.57195 c 3.458414,-0.70852 2.357522,-4.98828 2.606832,-7.60687 0.143789,-14.12972 -0.01695,-28.26026 -0.07116,-42.39017 -1.125271,-2.47709 -3.626565,-3.85222 -6.327229,-2.64671 0.08626,2.95626 0.0819,2.87369 0.390304,8.56226 0.202264,14.21848 -0.41984,29.21621 -0.458184,44.03258 -0.0035,1.37133 2.626353,0.47688 3.859433,0.0489 z m 58.3574,-1.84853 2.528312,-9.89061 c 0,0 4.43944,-0.18081 6.60632,-1.51811 3.17761,-1.96107 5.57008,-1.92608 6.44942,-1.74854 1.48587,0.3 2.85749,1.93593 2.85749,1.93593 l -1.34152,2.68095 -1.80337,5.71404 -0.0852,4.3442 16.46105,-0.0648 0.005,15.05743 -31.773922,-0.004 z m 36.987932,-65.11439 27.75124,-0.0155 -0.0114,14.94224 -13.57889,-0.0325 -0.0153,16.40586 13.49324,3.5e-4 0.1082,14.99529 -13.49699,-0.002 -0.005,20.04504 14.83197,-0.0117 -0.0748,15.34117 -28.6946,8.2e-4 c -0.0579,-25.08516 -0.22543,-55.30477 -0.30743,-81.66902 z m 59.43335,81.68686 -24.61326,-0.0192 0.0511,-8.96891 24.63183,0.004 z m -75.40875,-46.43081 c -1.87333,-3.58796 -2.74273,-2.91548 -1.30542,-6.81099 0.91462,-3.52387 2.04597,-7.32412 0.11789,-10.68688 -2.53566,-1.55051 -2.43022,2.74052 -2.29107,4.3942 -0.14733,3.97478 -4.81084,1.46334 -6.08354,-0.5895 -1.2348,-1.24729 -6.08155,-5.39062 -2.30324,-6.40022 1.64795,-0.38021 4.05876,-1.76449 2.56812,-3.6531 -1.51285,-1.67815 -4.1988,-0.3442 -5.87877,0.60168 -1.9224,1.47457 -4.50551,4.40003 -4.54623,3.90045 -0.0903,-1.10875 0.003,-4.4007 -0.052,-9.20816 l -0.0424,-6.86103 30.71331,-0.006 0.0162,15.13758 -8.20986,26.15228 c -0.65329,0.29198 -0.85589,-2.91824 -2.24048,-5.09445 z"
       id="path189-3" /></g></svg>
